#!OML:ASF Y:\EmotionMaleHayes\Project 1\Capture day 1\Session 1\Male1.ASF
:FULLY-SPECIFIED
:DEGREES
64
root -6.62736 17.3879 -1.27984 -23.9622 79.0883 -25.9198
lowerback 14.5363 6.32388 6.95366
upperback 0.923015 9.66662 1.30851
thorax -6.18514 4.57802 -4.28967
lowerneck -31.823 -0.719507 2.41526
upperneck 19.6181 -1.46961 -2.27584
head 11.541 -0.789278 -1.5187
rclavicle 7.95139e-016 -1.78906e-014
rhumerus -23.9604 16.4815 -88.8938
rradius 110.768
rwrist -22.1348
rhand -31.9601 -22.4961
rfingers 7.12502
rthumb -5.21018 -52.4121
lclavicle 7.95139e-016 -1.78906e-014
lhumerus -96.9067 -18.7204 104.636
lradius 93.7139
lwrist 26.3113
lhand -36.2873 -33.519
lfingers 7.12502
lthumb -9.387 -3.74801
rfemur 18.3667 2.94766 26.8481
rtibia 18.2856
rfoot -1.27257 1.7954
rtoes 15.2964
lfemur -35.1855 12.9642 -12.7771
ltibia 74.1057
lfoot -5.8638 5.51874
ltoes -5.09202
65
root -6.15992 17.5265 -1.30079 -24.1268 78.9787 -26.146
lowerback 14.419 6.45667 7.36001
upperback 0.561743 9.89387 1.06278
thorax -6.37145 4.65214 -4.80817
lowerneck -31.5972 -1.01985 2.20208
upperneck 20.1056 -1.88836 -1.89146
head 11.6851 -0.934131 -1.42091
rclavicle 3.47873e-014 0
rhumerus -24.9549 17.2561 -89.4249
rradius 111.899
rwrist -22.996
rhand -32.3349 -22.8323
rfingers 7.12502
rthumb -5.57206 -52.7391
lclavicle 3.47873e-014 0
lhumerus -98.3146 -18.8541 104.654
lradius 94.155
lwrist 26.6586
lhand -36.5548 -33.7974
lfingers 7.12502
lthumb -9.64513 -4.03819
rfemur 19.7826 2.69176 26.042
rtibia 17.322
rfoot 1.79842 1.12522
rtoes 18.597
lfemur -34.8755 12.6744 -12.861
ltibia 69.0455
lfoot -5.63725 6.87951
ltoes -2.62055
66
root -5.6935 17.6555 -1.31756 -24.5733 78.9654 -26.6526
lowerback 14.2477 6.5425 7.61099
upperback 0.256497 10.0375 0.938747
thorax -6.52324 4.69449 -5.09288
lowerneck -31.6949 -1.29997 1.84492
upperneck 20.8107 -2.24671 -1.42679
head 11.9781 -1.04821 -1.26506
rclavicle -1.22253e-013 -3.1408e-014
rhumerus -25.8681 18.1932 -89.7773
rradius 112.879
rwrist -23.5588
rhand -32.6363 -22.683
rfingers 7.12502
rthumb -5.86308 -52.5819
lclavicle -1.22253e-013 -3.1408e-014
lhumerus -99.4471 -18.8994 104.759
lradius 94.553
lwrist 26.9478
lhand -36.7126 -34.2211
lfingers 7.12502
lthumb -9.79741 -4.46902
rfemur 21.0124 2.42358 25.3572
rtibia 16.8003
rfoot 4.30366 0.863444
rtoes 20.5555
lfemur -34.2938 12.343 -12.8865
ltibia 63.7519
lfoot -4.70171 7.64757
ltoes -0.829697
67
root -5.22689 17.7729 -1.33362 -24.2474 79.0634 -26.3825
lowerback 13.7252 6.61404 7.71393
upperback 0.170075 10.0874 0.732145
thorax -6.26347 4.72699 -5.29887
lowerneck -31.9443 -1.486 1.63367
upperneck 21.423 -2.53875 -0.997785
head 12.2666 -1.12402 -1.13339
rclavicle 8.65707e-014 4.37326e-015
rhumerus -26.5304 19.0671 -90.0533
rradius 113.771
rwrist -23.8528
rhand -32.4569 -22.139
rfingers 7.12502
rthumb -5.68983 -52.0426
lclavicle 8.65707e-014 4.37326e-015
lhumerus -100.089 -19.0287 104.561
lradius 94.997
lwrist 27.121
lhand -36.5787 -34.5531
lfingers 7.12502
lthumb -9.66817 -4.79502
rfemur 21.9674 2.27932 24.587
rtibia 17.0217
rfoot 5.80054 0.95955
rtoes 21.9781
lfemur -33.4513 11.9536 -13.1449
ltibia 58.1671
lfoot -3.21414 8.13163
ltoes -2.02985
68
root -4.76754 17.8808 -1.3443 -24.3102 79.0082 -26.4352
lowerback 13.266 6.70742 7.83522
upperback 0.157829 10.1773 0.599056
thorax -5.96375 4.78482 -5.44465
lowerneck -32.2367 -1.71322 1.43199
upperneck 21.9682 -2.85446 -0.710438
head 12.5384 -1.22914 -1.06151
rclavicle 8.67198e-014 1.35174e-014
rhumerus -27.2493 19.8478 -90.3068
rradius 114.716
rwrist -23.9551
rhand -31.9363 -21.7981
rfingers 7.12502
rthumb -5.18726 -51.7146
lclavicle 8.67198e-014 1.35174e-014
lhumerus -100.42 -19.1236 104.244
lradius 95.3784
lwrist 27.1613
lhand -36.4581 -34.7755
lfingers 7.12502
lthumb -9.55183 -5.01199
rfemur 22.5771 2.75683 24.4429
rtibia 18.2543
rfoot 5.69531 0.793246
rtoes 23.2478
lfemur -32.3289 11.7532 -13.15
ltibia 52.4275
lfoot -1.4308 8.43164
ltoes -2.89905
69
root -4.31174 17.9746 -1.34848 -24.8676 78.7074 -27.0319
lowerback 12.8813 6.83098 8.05113
upperback 0.0591901 10.3391 0.554352
thorax -5.78817 4.86622 -5.57511
lowerneck -32.3293 -1.99784 1.05672
upperneck 22.3592 -3.19712 -0.314575
head 12.7224 -1.34683 -0.920115
rclavicle -2.45002e-014 -7.15625e-015
rhumerus -28.2264 20.5434 -90.5895
rradius 115.641
rwrist -23.9865
rhand -31.3537 -21.5432
rfingers 7.12502
rthumb -4.62472 -51.4727
lclavicle -2.45002e-014 -7.15625e-015
lhumerus -100.806 -19.1413 103.963
lradius 95.9297
lwrist 27.2388
lhand -36.5347 -34.7277
lfingers 7.12502
lthumb -9.62576 -4.96765
rfemur 22.7928 3.76266 24.9528
rtibia 20.3962
rfoot 4.83464 -0.218035
rtoes 23.4209
lfemur -31.0616 11.7952 -12.8154
ltibia 46.5928
lfoot 0.395408 8.62927
ltoes -1.85189
70
root -3.85498 18.0525 -1.35173 -24.4565 78.5097 -26.6843
lowerback 12.4756 6.96728 7.9884
upperback -0.0737268 10.4746 0.495428
thorax -5.68562 4.93685 -5.56905
lowerneck -32.2729 -2.21895 0.636506
upperneck 22.6577 -3.43669 0.109251
head 12.849 -1.42076 -0.736879
rclavicle 1.11493e-013 9.14409e-015
rhumerus -29.3615 21.2872 -90.91
rradius 116.397
rwrist -23.56
rhand -31.001 -21.12
rfingers 7.12502
rthumb -4.28414 -51.0567
lclavicle 1.11493e-013 9.14409e-015
lhumerus -101.175 -19.0785 103.712
lradius 96.6618
lwrist 27.2473
lhand -36.632 -34.7666
lfingers 7.12502
lthumb -9.71959 -5.01091
rfemur 22.9312 4.69285 25.24
rtibia 22.9174
rfoot 4.01943 -1.57409
rtoes 22.8809
lfemur -29.7541 11.6766 -12.7413
ltibia 40.8071
lfoot 2.01538 8.61594
ltoes -0.840966
71
root -3.39947 18.1158 -1.3523 -23.7592 78.4966 -25.9814
lowerback 12.0517 7.07849 7.79107
upperback -0.119197 10.5485 0.381514
thorax -5.5003 4.98821 -5.52951
lowerneck -32.289 -2.39494 0.432646
upperneck 22.9129 -3.66177 0.345795
head 12.9648 -1.49698 -0.658885
rclavicle -4.53229e-014 -1.23246e-014
rhumerus -30.4455 21.8941 -91.2925
rradius 116.946
rwrist -22.7449
rhand -30.6222 -20.4135
rfingers 7.12502
rthumb -3.91836 -50.3572
lclavicle -4.53229e-014 -1.23246e-014
lhumerus -101.244 -19.0824 103.364
lradius 97.2088
lwrist 27.0265
lhand -36.5415 -35.2128
lfingers 7.12502
lthumb -9.63231 -5.45297
rfemur 23.0339 5.28646 25.2779
rtibia 25.8104
rfoot 3.40541 -3.24557
rtoes 21.802
lfemur -28.3506 11.3549 -12.8431
ltibia 35.1676
lfoot 3.28548 8.34002
ltoes -2.12167
72
root -2.94662 18.1609 -1.34858 -24.3777 78.5271 -26.5682
lowerback 11.7323 7.09482 7.81701
upperback -0.212077 10.5427 0.284283
thorax -5.39931 4.98762 -5.60116
lowerneck -32.1599 -2.46627 0.580458
upperneck 23.0451 -3.81634 0.289445
head 12.9904 -1.55703 -0.735172
rclavicle -2.70844e-014 2.38542e-014
rhumerus -31.7653 22.3814 -91.9538
rradius 117.328
rwrist -21.7798
rhand -30.5457 -19.5321
rfingers 7.12502
rthumb -3.84446 -49.4772
lclavicle -2.70844e-014 2.38542e-014
lhumerus -101.27 -19.0602 102.888
lradius 97.6825
lwrist 26.6227
lhand -36.441 -35.5552
lfingers 7.12502
lthumb -9.53533 -5.79098
rfemur 22.8705 5.52551 25.4593
rtibia 29.2435
rfoot 2.71473 -4.29889
rtoes 22.8248
lfemur -26.9641 11.032 -12.7274
ltibia 29.8448
lfoot 4.03779 7.9838
ltoes -3.94901
